<svg xmlns="http://www.w3.org/2000/svg" viewBox="0 0 4510 1088" width="451" height="109"><g transform="scale(19.4286)"><path d="M12,14 Q28,14 40,28" fill="none" stroke="#FFFFFF" stroke-width="1.9" stroke-linecap="round"/><path d="M12,28 L40,28" fill="none" stroke="#FFFFFF" stroke-width="1.9" stroke-linecap="round"/><path d="M12,42 Q28,42 40,28" fill="none" stroke="#FFFFFF" stroke-width="1.9" stroke-linecap="round"/><circle cx="12" cy="14" r="3.1" fill="#FFFFFF"/><circle cx="12" cy="28" r="3.1" fill="#FFFFFF"/><circle cx="12" cy="42" r="3.1" fill="#FFFFFF"/><circle cx="41" cy="28" r="6.1" fill="none" stroke="#FFFFFF" stroke-width="3.0"/></g><g transform="translate(1371,0)"><g transform="translate(0,878) scale(1,-1)"><path d="M62.28271484375 0V724.0869140625H226.12890625V0Z" transform="translate(0.0,0)" fill="#FFFFFF"/><path d="M208.6953125 -12Q176.36962890625 -12 144.880615234375 -5.4130859375Q113.3916015625 1.173828125 87.706787109375 17.532470703125Q62.02197265625 33.89111328125 46.924072265625 62.84765625Q31.826171875 91.80419921875 31.826171875 136Q31.826171875 192.71728515625 56.097900390625 229.032470703125Q80.36962890625 265.34765625 125.771728515625 285.575927734375Q171.173828125 305.80419921875 235.47802734375 313.7607421875Q299.7822265625 321.71728515625 379.93408203125 321.71728515625V355.478515625Q379.93408203125 377.93505859375 371.031982421875 393.489501953125Q362.1298828125 409.0439453125 344.445068359375 417.641845703125Q326.76025390625 426.23974609375 297.912109375 426.23974609375Q271.78125 426.23974609375 252.41162109375 419.95703125Q233.0419921875 413.67431640625 223.139892578125 402.3046875Q213.23779296875 390.93505859375 213.23779296875 374.76123046875V366.19580078125H52.84814453125Q51.84814453125 370.65234375 51.84814453125 374.5654296875Q51.84814453125 378.478515625 51.84814453125 383.84814453125Q51.84814453125 431.02197265625 81.293701171875 465.924072265625Q110.7392578125 500.826171875 166.075927734375 519.95654296875Q221.41259765625 539.0869140625 299.0859375 539.0869140625Q371.62939453125 539.0869140625 426.552978515625 521.2607421875Q481.4765625 503.4345703125 512.62841796875 466.162841796875Q543.7802734375 428.89111328125 543.7802734375 369.36962890625V144.19482421875Q543.7802734375 126.8251953125 553.14990234375 116.923095703125Q562.51953125 107.02099609375 577.14990234375 107.02099609375H611.32373046875V6.173828125Q600.23681640625 0.54345703125 576.617431640625 -5.5Q552.998046875 -11.54345703125 520.10693359375 -11.54345703125Q486.49853515625 -11.54345703125 460.835693359375 -3.315185546875Q435.1728515625 4.9130859375 418.727294921875 20.36962890625Q402.28173828125 35.826171875 395.73828125 56.7392578125H389.19482421875Q370.02099609375 36.826171875 344.34716796875 21.141357421875Q318.67333984375 5.45654296875 285.271240234375 -3.271728515625Q251.869140625 -12 208.6953125 -12ZM269.607421875 101.04296875Q293.62939453125 101.04296875 313.86865234375 108.140869140625Q334.10791015625 115.23876953125 348.792724609375 127.706298828125Q363.4775390625 140.173828125 371.705810546875 158.010986328125Q379.93408203125 175.84814453125 379.93408203125 196.8701171875V232.28271484375Q322.76025390625 232.28271484375 281.69482421875 224.19580078125Q240.62939453125 216.10888671875 218.835693359375 199.28271484375Q197.0419921875 182.45654296875 197.0419921875 155.6083984375Q197.0419921875 136.521484375 206.357177734375 124.380126953125Q215.67236328125 112.23876953125 232.08544921875 106.640869140625Q248.49853515625 101.04296875 269.607421875 101.04296875Z" transform="translate(258.0,0)" fill="#FFFFFF"/><path d="M62.28271484375 597.76123046875V724.0869140625H226.12890625V597.76123046875ZM67.32568359375 -197.216796875Q52.23876953125 -197.216796875 32.4345703125 -195.216796875Q12.63037109375 -193.216796875 -6.71728515625 -189.17333984375Q-26.06494140625 -185.1298828125 -39.32568359375 -180.58642578125V-77.5654296875H11.76123046875Q37.65234375 -77.5654296875 49.967529296875 -63.34814453125Q62.28271484375 -49.130859375 62.28271484375 -22.23974609375V527.0869140625H226.12890625V-37.2177734375Q226.12890625 -87.06494140625 210.552978515625 -122.9560546875Q194.97705078125 -158.84716796875 160.183837890625 -178.031982421875Q125.390625 -197.216796875 67.32568359375 -197.216796875Z" transform="translate(844.0,0)" fill="#FFFFFF"/><path d="M62.28271484375 0V527.0869140625H197.43359375L209.06396484375 452.19580078125H216.06396484375Q234.15087890625 479.45654296875 259.41162109375 499.04345703125Q284.67236328125 518.63037109375 315.8896484375 528.858642578125Q347.10693359375 539.0869140625 381.650390625 539.0869140625Q435.80224609375 539.0869140625 473.97607421875 517.641357421875Q512.14990234375 496.19580078125 531.6064453125 452.19580078125H538.6064453125Q556.693359375 479.45654296875 582.138916015625 499.04345703125Q607.58447265625 518.63037109375 639.21484375 528.858642578125Q670.84521484375 539.0869140625 705.3017578125 539.0869140625Q759.91015625 539.0869140625 798.083984375 518.554443359375Q836.2578125 498.02197265625 856.442626953125 456.3046875Q876.62744140625 414.58740234375 876.62744140625 350.67431640625V0H712.78125V326.2177734375Q712.78125 347.783203125 707.8681640625 363.56591796875Q702.955078125 379.3486328125 693.813720703125 389.576904296875Q684.67236328125 399.80517578125 671.074462890625 405.076904296875Q657.4765625 410.3486328125 641.10693359375 410.3486328125Q614.82421875 410.3486328125 594.54150390625 396.794189453125Q574.2587890625 383.23974609375 562.9326171875 360.402587890625Q551.6064453125 337.5654296875 551.6064453125 308.173828125V0H387.76025390625V326.2177734375Q387.76025390625 347.783203125 382.84716796875 363.56591796875Q377.93408203125 379.3486328125 368.792724609375 389.576904296875Q359.6513671875 399.80517578125 346.053466796875 405.076904296875Q332.45556640625 410.3486328125 316.0859375 410.3486328125Q289.80322265625 410.3486328125 269.56396484375 396.794189453125Q249.32470703125 383.23974609375 237.726806640625 360.402587890625Q226.12890625 337.5654296875 226.12890625 308.173828125V0Z" transform="translate(1100.0,0)" fill="#FFFFFF"/><path d="M72.41357421875 0V166.58544921875H245.607421875V0Z" transform="translate(2007.0,0)" fill="#FFFFFF"/><path d="M208.6953125 -12Q176.36962890625 -12 144.880615234375 -5.4130859375Q113.3916015625 1.173828125 87.706787109375 17.532470703125Q62.02197265625 33.89111328125 46.924072265625 62.84765625Q31.826171875 91.80419921875 31.826171875 136Q31.826171875 192.71728515625 56.097900390625 229.032470703125Q80.36962890625 265.34765625 125.771728515625 285.575927734375Q171.173828125 305.80419921875 235.47802734375 313.7607421875Q299.7822265625 321.71728515625 379.93408203125 321.71728515625V355.478515625Q379.93408203125 377.93505859375 371.031982421875 393.489501953125Q362.1298828125 409.0439453125 344.445068359375 417.641845703125Q326.76025390625 426.23974609375 297.912109375 426.23974609375Q271.78125 426.23974609375 252.41162109375 419.95703125Q233.0419921875 413.67431640625 223.139892578125 402.3046875Q213.23779296875 390.93505859375 213.23779296875 374.76123046875V366.19580078125H52.84814453125Q51.84814453125 370.65234375 51.84814453125 374.5654296875Q51.84814453125 378.478515625 51.84814453125 383.84814453125Q51.84814453125 431.02197265625 81.293701171875 465.924072265625Q110.7392578125 500.826171875 166.075927734375 519.95654296875Q221.41259765625 539.0869140625 299.0859375 539.0869140625Q371.62939453125 539.0869140625 426.552978515625 521.2607421875Q481.4765625 503.4345703125 512.62841796875 466.162841796875Q543.7802734375 428.89111328125 543.7802734375 369.36962890625V144.19482421875Q543.7802734375 126.8251953125 553.14990234375 116.923095703125Q562.51953125 107.02099609375 577.14990234375 107.02099609375H611.32373046875V6.173828125Q600.23681640625 0.54345703125 576.617431640625 -5.5Q552.998046875 -11.54345703125 520.10693359375 -11.54345703125Q486.49853515625 -11.54345703125 460.835693359375 -3.315185546875Q435.1728515625 4.9130859375 418.727294921875 20.36962890625Q402.28173828125 35.826171875 395.73828125 56.7392578125H389.19482421875Q370.02099609375 36.826171875 344.34716796875 21.141357421875Q318.67333984375 5.45654296875 285.271240234375 -3.271728515625Q251.869140625 -12 208.6953125 -12ZM269.607421875 101.04296875Q293.62939453125 101.04296875 313.86865234375 108.140869140625Q334.10791015625 115.23876953125 348.792724609375 127.706298828125Q363.4775390625 140.173828125 371.705810546875 158.010986328125Q379.93408203125 175.84814453125 379.93408203125 196.8701171875V232.28271484375Q322.76025390625 232.28271484375 281.69482421875 224.19580078125Q240.62939453125 216.10888671875 218.835693359375 199.28271484375Q197.0419921875 182.45654296875 197.0419921875 155.6083984375Q197.0419921875 136.521484375 206.357177734375 124.380126953125Q215.67236328125 112.23876953125 232.08544921875 106.640869140625Q248.49853515625 101.04296875 269.607421875 101.04296875Z" transform="translate(2295.0,0)" fill="#FFFFFF"/><path d="M62.28271484375 597.76123046875V724.0869140625H226.12890625V597.76123046875ZM62.28271484375 0V527.0869140625H226.12890625V0Z" transform="translate(2881.0,0)" fill="#FFFFFF"/></g></g></svg>